<?xml version="1.0" encoding="UTF-8" standalone="no"?>
<!-- Created with Inkscape (http://www.inkscape.org/) -->

<svg
   width="138.13196mm"
   height="143.40417mm"
   viewBox="0 0 138.13196 143.40417"
   version="1.1"
   id="svg5"
   inkscape:version="1.1.2 (0a00cf5339, 2022-02-04)"
   sodipodi:docname="labels_colored.svg"
   inkscape:export-filename="/home/julius/Documents/github/DeepFUCCI/UnetIllustration/labels_drawing.png"
   inkscape:export-xdpi="150"
   inkscape:export-ydpi="150"
   xmlns:inkscape="http://www.inkscape.org/namespaces/inkscape"
   xmlns:sodipodi="http://sodipodi.sourceforge.net/DTD/sodipodi-0.dtd"
   xmlns="http://www.w3.org/2000/svg"
   xmlns:svg="http://www.w3.org/2000/svg">
  <sodipodi:namedview
     id="namedview7"
     pagecolor="#ffffff"
     bordercolor="#666666"
     borderopacity="1.0"
     inkscape:pageshadow="2"
     inkscape:pageopacity="0.0"
     inkscape:pagecheckerboard="0"
     inkscape:document-units="mm"
     showgrid="false"
     fit-margin-top="0"
     fit-margin-left="0"
     fit-margin-right="0"
     fit-margin-bottom="0"
     inkscape:zoom="0.75187991"
     inkscape:cx="252.03493"
     inkscape:cy="238.73493"
     inkscape:window-width="1850"
     inkscape:window-height="1016"
     inkscape:window-x="2230"
     inkscape:window-y="1239"
     inkscape:window-maximized="1"
     inkscape:current-layer="layer1" />
  <defs
     id="defs2" />
  <g
     inkscape:label="Layer 1"
     inkscape:groupmode="layer"
     id="layer1"
     transform="translate(-8.7902641,-5.347229)">
    <path
       style="fill:#00ffff;stroke:none;stroke-width:0.264583px;stroke-linecap:butt;stroke-linejoin:miter;stroke-opacity:1;fill-opacity:1"
       d="m 67.245077,36.826798 c 0.206299,-0.679979 0.02721,-1.461889 0.350801,-2.106734 0.119742,-0.238623 0.267586,-0.448466 0.353248,-0.70652 0.03695,-0.111326 -0.02299,-0.236876 0,-0.351896 0.04436,-0.221787 0.276571,-0.340291 0.351895,-0.527843 0.31514,-1.260409 -0.07345,0.04062 0.174874,-0.435327 0.03827,-0.07336 -0.03772,-0.174583 0,-0.248222 0.09731,-0.189952 0.171281,-0.12496 0.263922,-0.263922 0.10636,-0.159538 0.379444,-0.701736 0.437679,-0.876442 0.07647,-0.229408 0.05597,-0.493836 0.175948,-0.703792 0.06173,-0.108022 0.1862,-0.166771 0.263922,-0.263922 0.255534,-0.319419 0.302847,-0.890538 0.782809,-1.130549 0.10767,-0.05384 0.242591,-0.03414 0.350264,-0.08797 0.139038,-0.06952 0.208917,-0.275297 0.346977,-0.346966 0.144039,-0.07478 0.380309,-0.105715 0.518779,-0.174949 0.110596,-0.0553 0.147534,-0.216295 0.26231,-0.262289 0.337974,-0.135437 0.72834,-0.243869 1.052423,-0.351896 0.03934,-0.01312 0.05865,-0.05865 0.08797,-0.08797 0.05784,-0.02892 0.11076,-0.07118 0.173522,-0.08676 0.1247,-0.03096 0.329919,-0.01531 0.438666,-0.08797 0.06849,-0.04577 0.099,-0.142367 0.174746,-0.174745 0.729644,-0.311889 0.199239,-0.0047 0.615818,-0.08797 0.546669,-0.109333 0.931471,-0.630419 1.575604,-0.415717 0.460852,0.15361 0.725448,0.262241 1.114343,0.525642 4.5e-5,3e-5 0.167579,-3e-5 0.167638,0 0.06879,0.03523 0.356539,0.270043 0.401486,0.315125 0.0984,0.09869 0.197633,0.394672 0.262806,0.525642 0.05114,0.102764 0.205433,0.154083 0.25677,0.256759 0.02551,0.051 -0.02551,0.12006 0,0.171062 0.227438,0.454935 0.51567,0.953917 0.877012,1.315259 0.396673,0.396674 0.803531,0.863279 1.291965,1.117126 0.103918,0.05401 0.235747,0.03437 0.340429,0.08688 0.186619,0.09361 1.020768,0.932781 1.196067,1.108094 0.154157,0.15417 0.472485,0.213378 0.57009,0.411474 0.122407,0.248439 0.413414,0.554691 0.474859,0.80431 0.08337,0.33868 -0.01474,1.198324 0.08797,1.45315 0.031,0.07693 0.129133,0.107479 0.175948,0.175945 0.03258,0.04766 -0.144798,1.41727 -0.175948,1.540404 -0.03564,0.140864 -0.187002,0.223975 -0.261709,0.348599 -0.120984,0.201819 -0.108019,0.414287 -0.175948,0.611661 -0.100971,0.29337 -0.07447,0.06474 -0.263922,0.34774 -0.09529,0.142345 -0.102383,0.444944 -0.174853,0.59813 -0.05795,0.122486 -0.242959,0.184047 -0.304794,0.304795 -0.03572,0.06975 -0.03554,0.290247 -0.08383,0.338333 -0.07931,0.07897 -0.355664,0.191738 -0.418759,0.330793 -0.252802,0.557149 -0.940197,0.943403 -1.463037,1.117684 -0.129853,0.04328 -0.233278,0.271555 -0.348655,0.348642 -0.207992,0.138964 -0.36032,0.211852 -0.583536,0.323985 -0.104857,0.05268 -0.157353,0.209817 -0.262311,0.262289 -0.02574,0.01286 -0.05756,0 -0.08634,0 -0.02932,0 -0.06175,-0.01312 -0.08797,0 -0.165799,0.0829 -0.275201,0.267695 -0.435681,0.3508 -0.110599,0.05728 -0.393309,0.146606 -0.499687,0.17322 -0.112366,0.02811 -0.312883,-0.04013 -0.432803,0 -0.168857,0.0565 -0.293526,0.190294 -0.43987,0.263922 -0.145587,0.07325 -0.428921,0.11471 -0.598829,0.170654 -0.06024,0.01984 -0.197934,-0.03527 -0.249615,0 -0.471387,0.321672 -0.776026,0.25732 -1.308614,0.437668 -0.02647,0.009 -0.0559,0 -0.08385,0 -0.08522,0 -0.176755,-0.03217 -0.255675,0 -0.07681,0.03131 -0.101761,0.138854 -0.175948,0.175948 -0.642487,0.321244 -2.791192,-0.06095 -3.400184,-0.263922 -0.295076,-0.09834 -0.0676,-0.07388 -0.349705,-0.262815 -0.100295,-0.06717 -0.326559,-0.107117 -0.43566,-0.174155 -0.05067,-0.03114 -0.04177,-0.115456 -0.08383,-0.157509 -0.645528,-0.645488 -0.980342,-1.265827 -1.47339,-2.005401 -0.190339,-0.285507 -0.403948,-0.510246 -0.615818,-0.791766 -0.09674,-0.128547 -0.03595,-0.272679 -0.08677,-0.422322 -0.04759,-0.140124 -0.191542,-0.289298 -0.261128,-0.427607 -0.04763,-0.09467 0.0028,-0.574952 0,-0.594801 -0.07517,-0.52618 -0.239151,-0.902118 -0.0909,-1.431047 z"
       id="path1330" />
    <path
       style="fill:#00ffff;fill-opacity:1;stroke:none;stroke-width:0.264583px;stroke-linecap:butt;stroke-linejoin:miter;stroke-opacity:1"
       d="m 77.062993,127.45823 c 0.206299,-0.67998 0.02721,-1.46189 0.350801,-2.10673 0.119742,-0.23862 0.267586,-0.44847 0.353248,-0.70652 0.03695,-0.11133 -0.02299,-0.23688 0,-0.3519 0.04436,-0.22178 0.276571,-0.34029 0.351895,-0.52784 0.31514,-1.26041 -0.07345,0.0406 0.174874,-0.43533 0.03827,-0.0734 -0.03772,-0.17458 0,-0.24822 0.09731,-0.18995 0.171281,-0.12496 0.263922,-0.26392 0.10636,-0.15954 0.379444,-0.70174 0.437679,-0.87644 0.07647,-0.22941 0.05597,-0.49384 0.175948,-0.70379 0.06173,-0.10803 0.1862,-0.16677 0.263922,-0.26393 0.255534,-0.31942 0.302847,-0.89053 0.782809,-1.13054 0.10767,-0.0539 0.242591,-0.0342 0.350264,-0.088 0.139038,-0.0695 0.208917,-0.2753 0.346977,-0.34697 0.144039,-0.0748 0.380309,-0.10572 0.518779,-0.17495 0.110596,-0.0553 0.147534,-0.21629 0.26231,-0.26229 0.337974,-0.13544 0.72834,-0.24387 1.052423,-0.35189 0.03934,-0.0131 0.05865,-0.0587 0.08797,-0.088 0.05784,-0.0289 0.11076,-0.0712 0.173522,-0.0868 0.1247,-0.031 0.329919,-0.0153 0.438666,-0.088 0.06849,-0.0458 0.099,-0.14237 0.174746,-0.17475 0.729644,-0.31189 0.199239,-0.005 0.615818,-0.088 0.546669,-0.10933 0.931471,-0.63042 1.575604,-0.41572 0.460852,0.15361 0.725448,0.26224 1.114343,0.52565 4.5e-5,3e-5 0.167579,-3e-5 0.167638,0 0.06879,0.0352 0.356539,0.27004 0.401486,0.31512 0.0984,0.0987 0.197633,0.39467 0.262806,0.52564 0.05114,0.10277 0.205433,0.15409 0.25677,0.25676 0.02551,0.051 -0.02551,0.12006 0,0.17106 0.227438,0.45494 0.51567,0.95392 0.877012,1.31526 0.396673,0.39668 0.803531,0.86328 1.291965,1.11713 0.103918,0.054 0.235747,0.0344 0.340429,0.0869 0.186619,0.0936 1.020768,0.93278 1.196067,1.10809 0.154157,0.15417 0.472485,0.21338 0.57009,0.41148 0.122407,0.24844 0.413414,0.55469 0.474859,0.80431 0.08337,0.33868 -0.01474,1.19832 0.08797,1.45315 0.031,0.0769 0.129133,0.10747 0.175948,0.17594 0.03258,0.0477 -0.144798,1.41727 -0.175948,1.5404 -0.03564,0.14087 -0.187002,0.22398 -0.261709,0.3486 -0.120984,0.20182 -0.108019,0.41429 -0.175948,0.61167 -0.100971,0.29336 -0.07447,0.0647 -0.263922,0.34773 -0.09529,0.14235 -0.102383,0.44495 -0.174853,0.59813 -0.05795,0.12249 -0.242959,0.18405 -0.304794,0.3048 -0.03572,0.0697 -0.03554,0.29025 -0.08383,0.33833 -0.07931,0.079 -0.355664,0.19174 -0.418759,0.3308 -0.252802,0.55714 -0.940197,0.9434 -1.463037,1.11768 -0.129853,0.0433 -0.233278,0.27155 -0.348655,0.34864 -0.207992,0.13897 -0.36032,0.21185 -0.583536,0.32399 -0.104857,0.0527 -0.157353,0.20981 -0.262311,0.26229 -0.02574,0.0129 -0.05756,0 -0.08634,0 -0.02932,0 -0.06175,-0.0131 -0.08797,0 -0.165799,0.0829 -0.275201,0.26769 -0.435681,0.3508 -0.110599,0.0573 -0.393309,0.1466 -0.499687,0.17322 -0.112366,0.0281 -0.312883,-0.0401 -0.432803,0 -0.168857,0.0565 -0.293526,0.19029 -0.43987,0.26392 -0.145587,0.0733 -0.428921,0.11471 -0.598829,0.17065 -0.06024,0.0198 -0.197934,-0.0353 -0.249615,0 -0.471387,0.32167 -0.776026,0.25732 -1.308614,0.43767 -0.02647,0.009 -0.0559,0 -0.08385,0 -0.08522,0 -0.176755,-0.0322 -0.255675,0 -0.07681,0.0313 -0.101761,0.13885 -0.175948,0.17595 -0.642487,0.32124 -2.791192,-0.0609 -3.400184,-0.26392 -0.295076,-0.0983 -0.0676,-0.0739 -0.349705,-0.26282 -0.100295,-0.0672 -0.326559,-0.10712 -0.43566,-0.17415 -0.05067,-0.0311 -0.04177,-0.11546 -0.08383,-0.15751 -0.645528,-0.64549 -0.980342,-1.26583 -1.47339,-2.0054 -0.190339,-0.28551 -0.403948,-0.51025 -0.615818,-0.79177 -0.09674,-0.12855 -0.03595,-0.27268 -0.08677,-0.42232 -0.04759,-0.14013 -0.191542,-0.2893 -0.261128,-0.42761 -0.04763,-0.0947 0.0028,-0.57495 0,-0.5948 -0.07517,-0.52618 -0.239151,-0.90212 -0.0909,-1.43105 z"
       id="path1330-7" />
    <path
       style="fill:#00ffff;fill-opacity:1;stroke:none;stroke-width:0.264583px;stroke-linecap:butt;stroke-linejoin:miter;stroke-opacity:1"
       d="m 111.17969,122.7071 c 0.2063,-0.67998 0.0272,-1.46189 0.3508,-2.10673 0.11974,-0.23863 0.26759,-0.44847 0.35325,-0.70652 0.0369,-0.11133 -0.023,-0.23688 0,-0.3519 0.0444,-0.22179 0.27657,-0.34029 0.3519,-0.52784 0.31514,-1.26041 -0.0735,0.0406 0.17487,-0.43533 0.0383,-0.0734 -0.0377,-0.17458 0,-0.24822 0.0973,-0.18995 0.17128,-0.12496 0.26392,-0.26392 0.10636,-0.15954 0.37945,-0.70174 0.43768,-0.87645 0.0765,-0.2294 0.056,-0.49383 0.17595,-0.70379 0.0617,-0.10802 0.1862,-0.16677 0.26392,-0.26392 0.25553,-0.31942 0.30285,-0.89054 0.78281,-1.13055 0.10767,-0.0538 0.24259,-0.0341 0.35026,-0.088 0.13904,-0.0695 0.20892,-0.2753 0.34698,-0.34696 0.14404,-0.0748 0.38031,-0.10572 0.51878,-0.17495 0.1106,-0.0553 0.14753,-0.2163 0.26231,-0.26229 0.33797,-0.13544 0.72834,-0.24387 1.05242,-0.3519 0.0393,-0.0131 0.0587,-0.0587 0.088,-0.088 0.0578,-0.0289 0.11076,-0.0712 0.17352,-0.0868 0.1247,-0.031 0.32992,-0.0153 0.43867,-0.088 0.0685,-0.0458 0.099,-0.14237 0.17475,-0.17474 0.72964,-0.31189 0.19924,-0.005 0.61581,-0.088 0.54667,-0.10934 0.93148,-0.63042 1.57561,-0.41572 3.59609,1.31424 2.14971,0.8063 6.93065,4.01522 0.12241,0.24844 -0.0386,2.37255 0.0228,2.62217 0.0834,0.33868 -0.0147,1.19833 0.088,1.45315 0.031,0.0769 0.12914,0.10748 0.17595,0.17595 0.0326,0.0477 -0.1448,1.41727 -0.17595,1.5404 -0.0356,0.14087 -0.187,0.22398 -0.26171,0.3486 -0.12098,0.20182 -0.10801,0.41429 -0.17594,0.61166 -0.10097,0.29337 -0.0745,0.0647 -0.26393,0.34774 -0.0953,0.14235 -0.10238,0.44495 -0.17485,0.59813 -0.058,0.12249 -0.24296,0.18405 -0.30479,0.3048 -0.0357,0.0697 -0.0355,0.29024 -0.0838,0.33833 -0.0793,0.079 -0.35567,0.19174 -0.41876,0.33079 -0.2528,0.55715 -0.9402,0.94341 -1.46304,1.11769 -0.12985,0.0433 -0.23328,0.27155 -0.34865,0.34864 -0.208,0.13896 -0.36032,0.21185 -0.58354,0.32398 -0.10486,0.0527 -0.15735,0.20982 -0.26231,0.26229 -0.0257,0.0129 -0.0576,0 -0.0863,0 -0.0293,0 -0.0618,-0.0131 -0.088,0 -0.1658,0.0829 -0.2752,0.2677 -0.43568,0.3508 -0.1106,0.0573 -0.39331,0.14661 -0.49969,0.17322 -0.11236,0.0281 -0.31288,-0.0401 -0.4328,0 -0.16886,0.0565 -0.29353,0.1903 -0.43987,0.26392 -0.14559,0.0733 -0.42892,0.11471 -0.59883,0.17066 -0.0602,0.0198 -0.19793,-0.0353 -0.24962,0 -0.47138,0.32167 -0.77602,0.25732 -1.30861,0.43767 -0.0265,0.009 -0.0559,0 -0.0839,0 -0.0852,0 -0.17675,-0.0322 -0.25567,0 -0.0768,0.0313 -0.10177,0.13885 -0.17595,0.17594 -0.64249,0.32125 -2.79119,-0.0609 -3.40019,-0.26392 -0.29507,-0.0983 -0.0676,-0.0739 -0.3497,-0.26281 -0.1003,-0.0672 -0.32656,-0.10712 -0.43566,-0.17416 -0.0507,-0.0311 -0.0418,-0.11545 -0.0838,-0.15751 -0.64553,-0.64549 -0.98034,-1.26582 -1.47339,-2.0054 -0.19034,-0.28551 -0.40395,-0.51024 -0.61582,-0.79176 -0.0967,-0.12855 -0.0359,-0.27268 -0.0868,-0.42233 -0.0476,-0.14012 -0.19154,-0.28929 -0.26113,-0.4276 -0.0476,-0.0947 0.003,-0.57496 0,-0.5948 -0.0752,-0.52618 -0.23915,-0.90212 -0.0909,-1.43105 z"
       id="path1330-5"
       sodipodi:nodetypes="cscccscscsscccssscsscccccsscssscsssssscssssscscsssscsccscccccc" />
    <path
       style="fill:#00ffff;stroke:none;stroke-width:0.264583px;stroke-linecap:butt;stroke-linejoin:miter;stroke-opacity:1;fill-opacity:1"
       d="m 92.860612,36.334565 c 0.03605,-0.111409 0.02101,-0.246134 0.08503,-0.342154 0.202393,-0.303594 0.35855,-0.453171 0.526748,-0.789565 0.208984,-0.417973 1.331701,-0.864171 1.748933,-1.07606 0.137787,-0.06997 0.206986,-0.276834 0.345408,-0.345398 0.311343,-0.154215 0.659805,-0.409778 0.962515,-0.611587 0.43203,-0.28802 0.812683,-0.776385 1.231635,-1.055687 0.181962,-0.121306 0.294587,-0.103307 0.43987,-0.175948 0.141486,-0.07074 0.210166,-0.277463 0.350263,-0.350274 0.70911,-0.368533 1.447215,-0.95269 2.146726,-1.293964 0.16574,-0.08086 0.43022,-0.0018 0.5948,-0.08382 0.53018,-0.264261 1.12358,-0.332293 1.65672,-0.609804 0.19662,-0.102343 0.70873,-0.05241 0.95365,-0.174852 0.0366,-0.01831 0.0579,-0.05791 0.0869,-0.08687 0.0867,0 0.17605,0.02125 0.26012,0 0.0804,-0.02032 0.10698,-0.129873 0.17594,-0.175948 0.12536,-0.08374 0.36214,-0.12109 0.49108,-0.160194 0.29989,-0.09095 0.62392,0.05485 0.86537,0.175948 0.26908,0.134963 0.74045,-0.09556 1.02714,0 0.14438,0.04813 0.29807,0.104595 0.43987,0.175948 0.15833,0.07967 0.4523,0.01562 0.62205,0.08797 0.34875,0.148649 0.10451,0.932528 0.17375,1.209523 0.0624,0.249628 0.47251,0.407702 0.64716,0.495026 0.37438,0.187189 0.80287,0.77637 1.0254,1.113356 0.15616,0.236466 0.3528,0.101185 0.51799,0.343144 0.25535,0.374028 0.4767,0.781018 0.68951,1.203981 0.0721,0.143356 0.021,0.3888 0.0868,0.51689 0.0496,0.09655 0.11806,0.151408 0.16611,0.248404 0.11393,0.230013 -0.0439,0.631896 0,0.891347 0.17969,1.061204 -0.0255,0.03691 0.17594,0.43987 0.053,0.10591 0.14701,2.517719 0.088,2.634559 -0.19896,0.393811 -0.85073,0.671266 -1.0003,0.903031 -0.18822,0.291671 -0.41085,0.692126 -0.67773,1.025736 -0.42696,0.533699 0.06,-0.03211 -0.26393,0.615818 -0.0255,0.133506 -0.20721,0.153181 -0.26392,0.263922 -0.13537,0.264356 -0.24471,0.648832 -0.47516,0.878557 -0.0749,0.07465 -0.19623,0.09472 -0.26392,0.175948 -0.084,0.100748 -0.092,0.251148 -0.17595,0.351896 -0.15714,0.188576 -0.49429,0.424844 -0.6967,0.527843 -0.17371,0.08839 -1.30511,1.185884 -1.4468,1.363007 -0.47037,0.587962 -1.38194,1.886741 -2.15751,2.073711 -0.0855,0.02061 -0.17858,-0.02132 -0.26392,0 -0.16483,0.04121 -0.33527,0.286597 -0.52456,0.349695 -0.11128,0.03709 -0.2381,-0.02845 -0.3519,0 -0.0402,0.01005 -0.0511,0.06908 -0.088,0.08797 -0.16885,0.08645 -0.49804,-0.04615 -0.68264,0 -0.97711,0.244279 -2.220897,0.08797 -3.240451,0.08797 -0.677994,0 -3.010384,0.157152 -3.499067,-0.08797 -1.036439,-0.51988 0.370428,0.135673 -0.437657,-0.350801 -0.518261,-0.311996 -0.0397,0.04542 -0.436584,-0.08688 -0.52124,-0.173747 -1.993413,-1.157174 -2.274888,-1.579386 -0.05144,-0.07716 -0.04026,-0.184403 -0.08797,-0.263921 -0.06401,-0.106686 -0.217715,-0.148408 -0.263921,-0.263922 -0.226664,-0.566658 -0.264269,-1.266235 -0.521055,-1.797603 -0.116803,-0.2417 -0.01881,-0.69102 -0.08797,-0.967714 0.054,-0.157697 -0.136636,-0.16129 -0.170881,-0.258842 2.449741,-7.832226 0.724336,-2.463164 1.771956,-5.251906 z"
       id="path2008"
       sodipodi:nodetypes="ccsssssssscsscssssssssssscsscccsscsscsscscssssssssssssccc" />
    <path
       style="fill:#00ffff;fill-opacity:1;stroke:none;stroke-width:0.264583px;stroke-linecap:butt;stroke-linejoin:miter;stroke-opacity:1"
       d="m 69.454092,69.191824 c 0.07968,-0.08581 0.122875,-0.214302 0.221424,-0.274356 0.311569,-0.189887 0.516248,-0.259634 0.810649,-0.493684 0.365793,-0.290812 1.571952,-0.221778 2.039627,-0.237894 0.154444,-0.0053 0.304445,-0.163687 0.458871,-0.167462 0.34734,-0.0085 0.771085,-0.09321 1.130674,-0.148498 0.513206,-0.0789 1.06434,-0.36112 1.562011,-0.437632 0.216151,-0.03323 0.310673,0.0306 0.473039,0.02602 0.158122,-0.0045 0.307594,-0.162916 0.46533,-0.169836 0.798391,-0.03502 1.714026,-0.253309 2.492214,-0.267662 0.184382,-0.0034 0.39083,0.179845 0.574649,0.174904 0.592174,-0.01596 1.158894,0.172673 1.759341,0.145952 0.221442,-0.0099 0.664697,0.251442 0.93841,0.24374 0.04091,-0.0012 0.07692,-0.02808 0.115434,-0.04211 0.07861,0.03657 0.150656,0.09353 0.235845,0.109725 0.08147,0.01549 0.15178,-0.07263 0.23374,-0.08531 0.148984,-0.02305 0.379423,0.04297 0.512825,0.06191 0.310268,0.04404 0.542556,0.312917 0.710391,0.524563 0.187038,0.235873 0.711659,0.225699 0.931284,0.433275 0.110604,0.104541 0.226133,0.220567 0.324601,0.345076 0.109947,0.139023 0.403501,0.204954 0.52689,0.342157 0.2535,0.281889 -0.298607,0.889587 -0.352673,1.169939 -0.04872,0.252654 0.256435,0.568971 0.377951,0.721817 0.26048,0.327643 0.40045,1.042588 0.460064,1.441995 0.04184,0.28027 0.277193,0.240562 0.324902,0.529622 0.07375,0.446836 0.10276,0.909215 0.117293,1.382475 0.0049,0.160391 -0.144966,0.361374 -0.139338,0.505267 0.0042,0.108462 0.04317,0.187078 0.04582,0.295291 0.0063,0.256606 -0.306354,0.554408 -0.375994,0.808164 -0.284722,1.037967 -0.03869,0.02271 -0.02603,0.473036 0.0034,0.118383 -0.928749,2.34477 -1.031538,2.425814 -0.346512,0.273133 -1.054494,0.249762 -1.28787,0.396805 -0.29369,0.185056 -0.664465,0.454228 -1.047165,0.644127 -0.612242,0.30379 0.06795,-0.0038 -0.499067,0.447016 -0.07944,0.11029 -0.252488,0.05148 -0.350619,0.127964 -0.234249,0.182583 -0.495567,0.485056 -0.801415,0.596132 -0.0994,0.03609 -0.217872,0.0031 -0.313509,0.0482 -0.118659,0.05591 -0.189355,0.188902 -0.307969,0.244836 -0.222021,0.104691 -0.627371,0.176692 -0.854339,0.184697 -0.194784,0.0069 -1.68355,0.524684 -1.886732,0.625509 -0.674491,0.334677 -2.048849,1.127726 -2.830909,0.970092 -0.08621,-0.01738 -0.152921,-0.09466 -0.23929,-0.111328 -0.166831,-0.03217 -0.424876,0.118425 -0.623117,0.09579 -0.116541,-0.01331 -0.203879,-0.126232 -0.31906,-0.148441 -0.04069,-0.0078 -0.07547,0.04108 -0.116895,0.04264 -0.18956,0.0072 -0.432095,-0.25193 -0.618934,-0.287955 -0.988967,-0.190689 -2.050744,-0.857072 -2.97515,-1.287146 -0.614722,-0.285995 -2.795737,-1.127372 -3.135416,-1.555757 -0.720416,-0.90856 0.278629,0.279268 -0.248836,-0.502678 -0.338287,-0.501496 -0.05515,0.02443 -0.359193,-0.262935 -0.399305,-0.377405 -1.319255,-1.890056 -1.396362,-2.391599 -0.01409,-0.09166 0.04128,-0.184177 0.03157,-0.276399 -0.01303,-0.123731 -0.134795,-0.226396 -0.127962,-0.350621 0.03352,-0.609388 0.294524,-1.259541 0.285847,-1.849639 -0.0039,-0.268415 0.274436,-0.634467 0.328446,-0.914512 0.115482,-0.120202 -0.05585,-0.203875 -0.04575,-0.306768 5.524959,-6.067935 1.695765,-1.927751 3.821981,-4.014325 z"
       id="path2008-3"
       sodipodi:nodetypes="ccsssssssscsscssssssssssscsscccsscsscsscscssssssssssssccc" />
    <path
       style="fill:#ff00ff;stroke:none;stroke-width:0.264583px;stroke-linecap:butt;stroke-linejoin:miter;stroke-opacity:1;fill-opacity:1"
       d="m 41.145943,70.79439 c -0.407961,-0.524682 -0.769224,-1.188628 -1.438511,-1.412661 -0.07774,-0.02604 -0.173725,0.03879 -0.245946,0 -0.256768,-0.137927 -0.530392,-0.275082 -0.790067,-0.437348 -0.114771,-0.07172 -0.621734,-0.499677 -0.703792,-0.527027 -0.330303,-0.110093 -0.712327,-0.11113 -1.052422,-0.175948 -0.463296,-0.0883 -1.007237,-0.26857 -1.444998,-0.45544 -0.09851,-0.04205 -0.166029,-0.143936 -0.267638,-0.177805 -0.155315,-0.05177 -0.568026,0 -0.703792,0 -0.82121,0 -1.737629,0.116228 -2.551244,0 -0.06491,-0.0093 -0.111649,-0.07512 -0.175948,-0.08797 -0.201286,-0.04026 -0.412608,0.02903 -0.615817,0 -0.890446,-0.127209 -1.81261,-0.08797 -2.723906,-0.08797 -0.29409,0 -0.760904,-0.07293 -1.047977,0 -0.271362,0.06893 -0.443483,0.264022 -0.689272,0.346644 -0.197523,0.0664 -0.408413,0.07335 -0.613605,0.175948 -0.421553,0.210775 0.606384,-0.05751 -0.351896,0.263921 -0.202731,0.068 -0.494466,0.01998 -0.697198,0.08797 -0.100242,0.03362 -0.169352,0.128662 -0.263921,0.175948 -0.205223,0.102611 -0.486268,0.121174 -0.701601,0.174842 -0.178833,0.04457 -0.359536,0.09274 -0.524536,0.174853 -0.07288,0.03627 -0.09364,0.153207 -0.172683,0.172693 -0.08542,0.02106 -0.178575,-0.02133 -0.263922,0 -0.08388,0.02098 -1.76388,1.643375 -1.844209,1.844199 -0.04696,0.117396 -0.02773,0.313719 -0.08797,0.434232 -0.06203,0.124086 -0.160215,0.07281 -0.258273,0.17032 -0.34315,0.341222 -0.745243,1.999498 -0.522711,2.444562 0.164701,0.329401 0.441424,0.427746 0.791766,0.527844 0.05639,0.01611 0.125656,-0.03018 0.175947,0 0.295364,0.177218 0.225767,0.47191 0.438753,0.613616 0.47715,0.317463 1.065076,0.452609 1.53121,0.815165 0.807547,0.628105 1.109754,1.602613 2.126195,2.038231 0.859913,0.368536 1.631536,0.401339 2.555346,0.529476 0.4914,0.06816 0.973992,0.189413 1.46218,0.277689 0.341797,0.06181 0.667706,0.07229 0.984209,0.177797 0.184951,0.06165 0.428116,-0.05363 0.615817,0 0.216414,0.06183 0.519145,0.159213 0.703791,0.263922 0.02803,0.0159 2.727574,0.08797 2.952819,0.08797 0.298235,0 1.249698,0.09554 1.486752,0 0.681977,-0.27486 -0.0154,-0.128881 0.877549,-0.263922 0.221014,-0.03342 1.445006,-0.115242 1.692918,-0.263988 0.05623,-0.03374 0.03551,-0.136604 0.08797,-0.175948 0.07418,-0.05564 0.175948,-0.05865 0.263921,-0.08797 0.0593,-0.08895 0.10231,-0.191251 0.177901,-0.266843 0.31682,-0.316809 0.26479,-0.07592 0.705747,-0.264898 0.04142,-0.01775 0.413269,-0.474631 0.435724,-0.519544 0.105714,-0.211426 0.116768,-0.634481 0.263922,-0.879737 0.06361,-0.106026 0.20679,-0.151802 0.262289,-0.262289 0.142475,-0.283631 0.352163,-0.965203 0.439999,-1.228683 0.07477,-0.22429 1.7e-4,-0.484277 0.08797,-0.703791 0.175948,-0.43987 0.131961,0 0.263922,-0.263922 0.127379,-0.25476 0.08797,-0.51417 0.08797,-0.789565 0.583513,-0.581493 -0.414779,-1.735474 -0.71874,-2.464569 z"
       id="path5328"
       sodipodi:nodetypes="sccssssssccssssssssssscssssscssssssssssssscssssssssccs" />
    <path
       style="fill:#ff00ff;stroke:none;stroke-width:0.264583px;stroke-linecap:butt;stroke-linejoin:miter;stroke-opacity:1;fill-opacity:1"
       d="m 128.35517,95.778761 c -0.42838,-0.885048 -1.14912,-1.598258 -1.66523,-2.424028 -0.39371,-0.312952 -0.29804,-0.84863 -0.52784,-1.231636 -0.52785,-0.879739 -0.17595,0 -0.52785,-0.527843 -0.6923,-1.03845 -1.64654,-1.862323 -2.46327,-2.815167 -0.26164,-0.305242 -0.5233,-0.982882 -0.8775,-1.227233 -0.55578,-0.383407 -1.64172,0.430223 -2.03221,0.527844 -0.51537,0.128841 -0.88413,0.09156 -1.39878,0.349705 -0.14827,0.07438 -0.19465,0.299045 -0.35189,0.351896 -0.16122,0.05419 -0.35911,-0.07803 -0.51024,0 -0.34533,0.178313 -0.80812,0.0075 -1.13008,0.173736 -0.26633,0.137517 -0.57666,0.04947 -0.82368,0.173757 -0.14819,0.07456 -0.20371,0.277352 -0.3519,0.351896 -0.0518,0.02603 -0.11589,0 -0.17384,0 -0.11593,0.05795 -0.24,0.101878 -0.34777,0.173866 -0.71785,0.479472 -1.61549,2.368282 -1.93324,3.162657 -0.15819,0.39548 -0.52599,0.527574 -0.69705,0.872995 -0.1505,0.303911 -0.17405,0.699998 -0.35189,1.055687 -0.0742,0.148374 -0.27771,0.203523 -0.3519,0.351896 -0.32047,0.640938 -0.2921,3.646811 -0.17595,4.343734 0.10304,0.618247 0.38413,0.452194 0.52785,0.879737 0.0522,0.15541 -0.0776,0.34745 0,0.49187 0.13412,0.2496 0.83181,0.9755 1.04739,1.04735 0.76601,0.25534 -0.0694,-0.33793 0.7038,0.17595 0.25456,0.1692 0.40926,0.534 0.6778,0.67781 0.13136,0.0703 0.51985,-0.0388 0.63536,0 0.54418,0.18292 1.20822,1.21449 1.75948,1.58353 0.58237,0.38986 1.35387,0.70248 1.95669,1.00921 1.02,0.51898 2.39965,-0.9586 3.16891,-1.21502 0.46848,-0.15616 1.89216,-0.0752 2.44123,-0.34968 0.14837,-0.0742 0.21496,-0.25827 0.3519,-0.3519 1.54196,-1.05431 3.21149,-1.78808 3.8309,-3.631283 0.14277,-0.424855 -0.17595,-1.32315 -0.17595,-1.585743 0,-1.017802 0.4045,-1.473081 -0.23325,-2.395593 z"
       id="path5800" />
  </g>
</svg>
